<svg width="42" height="48" viewBox="0 0 42 48" fill="none" xmlns="http://www.w3.org/2000/svg">
<path d="M12 0H4V2H2V4H0V10H4V6H6V4H12V6H14V8H12V10H10V12H8V14H6V16H4V18H2V20H0V24H18V20H8V18H10V16H12V14H14V10H18V4H14V2H12V0Z" fill="#9C27B0"/>
<path d="M12 0H14V2H12V0Z" fill="#7B1FA2"/>
<path d="M14 2H16V4H14V2Z" fill="#7B1FA2"/>
<path d="M8 4H6V6H4V10H6V6H8V4Z" fill="#7B1FA2"/>
<path d="M18 10V12H16V14H14V10H18Z" fill="#7B1FA2"/>
<path d="M12 16V14H14V16H12Z" fill="#7B1FA2"/>
<path d="M10 18V16H12V18H10Z" fill="#7B1FA2"/>
<path d="M10 18V20H8V18H10Z" fill="#7B1FA2"/>
<path d="M20 20H18V24H20V20Z" fill="#7B1FA2"/>
<path fill-rule="evenodd" clip-rule="evenodd" d="M24 0H32V2H34V4H38V20H34V22H32V24H24V22H22V20H20V4H22V2H24V0ZM32 18V20H24V4H32V6H34V18H32Z" fill="#008080"/>
<path d="M34 0H32V2H34V4H38V20H34V22H32V24H34V22H38V20H40V4H38V2H34V0Z" fill="#006064"/>
<path d="M28 4H24V20H28V18H26V6H28V4Z" fill="#006064"/>
<path fill-rule="evenodd" clip-rule="evenodd" d="M14 24H2V26H0V36H2V38H14V40H12V44H4V48H12V46H14V44H18V26H14V24ZM14 28H4V34H14V28Z" fill="#4CAF50"/>
<path d="M14 24H18V26H14V24Z" fill="#388E3C"/>
<path d="M18 44V26H20V44H18Z" fill="#388E3C"/>
<path d="M14 46H18V44H14V46Z" fill="#388E3C"/>
<path d="M14 46V48H12V46H14Z" fill="#388E3C"/>
<path d="M4 28H6V34H4V28Z" fill="#388E3C"/>
<path fill-rule="evenodd" clip-rule="evenodd" d="M36 24H30V26H28V28H24V32H22V34H20V40H22V42H32V48H36V42H38V38H36V24ZM32 38V30H30V32H28V34H26V36H24V38H32Z" fill="#E91E63"/>
<path d="M38 24H36V38H38V42H36V48H38V42H40V38H38V24Z" fill="#C2185B"/>
<path d="M30 30H32V32H30V30Z" fill="#C2185B"/>
<path d="M28 34V32H30V34H28Z" fill="#C2185B"/>
<path d="M26 36V34H28V36H26Z" fill="#C2185B"/>
<path d="M26 36V38H24V36H26Z" fill="#C2185B"/>
<path d="M14 0H16V2H14V0Z" fill="black"/>
<path d="M18 4H16V2H18V4Z" fill="black"/>
<path d="M18 12V4H20V12H18Z" fill="black"/>
<path d="M16 14V12H18V14H16Z" fill="black"/>
<path d="M14 16V14H16V16H14Z" fill="black"/>
<path d="M12 18V16H14V18H12Z" fill="black"/>
<path d="M12 18V20H10V18H12Z" fill="black"/>
<path d="M12 4H8V6H6V10H8V6H12V4Z" fill="black"/>
<path d="M22 20H20V24H18V26H20V34H22V26H20V24H22V20Z" fill="black"/>
<path d="M26 6H28V18H26V6Z" fill="black"/>
<path d="M28 18H32V20H28V18Z" fill="black"/>
<path d="M28 6V4H32V6H28Z" fill="black"/>
<path d="M34 0H38V2H34V0Z" fill="black"/>
<path d="M40 4H38V2H40V4Z" fill="black"/>
<path d="M40 20V4H42V20H40Z" fill="black"/>
<path d="M38 22V20H40V22H38Z" fill="black"/>
<path d="M38 24H34V22H38V24Z" fill="black"/>
<path d="M40 38V24H38V38H40Z" fill="black"/>
<path d="M40 42V38H42V42H40Z" fill="black"/>
<path d="M40 42V48H38V42H40Z" fill="black"/>
<path d="M6 28H8V34H6V28Z" fill="black"/>
<path d="M22 40H20V44H18V46H14V48H18V46H20V44H22V40Z" fill="black"/>
<path d="M26 36H28V38H26V36Z" fill="black"/>
<path d="M30 34H28V36H30V34Z" fill="black"/>
<path d="M30 34H32V32H30V34Z" fill="black"/>
</svg>
