<?xml version="1.0" encoding="utf-8"?>
<!-- Generator: Adobe Illustrator 25.2.0, SVG Export Plug-In . SVG Version: 6.00 Build 0)  -->
<svg version="1.1" id="Слой_1" xmlns="http://www.w3.org/2000/svg" xmlns:xlink="http://www.w3.org/1999/xlink" x="0px" y="0px"
	 viewBox="0 0 32 32" style="enable-background:new 0 0 32 32;" xml:space="preserve">
<style type="text/css">
	.st0{fill:#800080;}
	.st1{fill:#808080;}
	.st2{fill:#C4C4C4;}
	.st3{fill-rule:evenodd;clip-rule:evenodd;}
	.st4{fill:#FFFFFF;}
	.st5{fill:#FFFF00;}
	.st6{fill:#808000;}
</style>
<g>
	<path class="st0" d="M15,1h2v1h1v1h2v1h2v1h2v1h2v1h2v1h2v1h1v1h-1v1h-1v1h-1v1h-1v1h-1v1h-1v1h-1v1h-1v1h-1v1h-1v1h-1v1h-1v1h-1v1
		h-2v-1h-2v-1h-2v-1h-2v-1H8v-1H6v-1H4v-1H3v-1H2v-1h1v-1h1v-1h1v-1h1v-1h1V9h1V8h1V7h1V6h1V5h1V4h1V3h1V2h1V1z"/>
	<path class="st0" d="M1,16v-1h1v1H1z"/>
	<path class="st0" d="M3,23H0v-7h1v6h2V23z"/>
	<path class="st0" d="M5,24H3v-1h2V24z"/>
	<path class="st0" d="M7,25H5v-1h2V25z"/>
	<path class="st0" d="M9,26H7v-1h2V26z"/>
	<path class="st0" d="M11,27H9v-1h2V27z"/>
	<path class="st0" d="M13,28h-2v-1h2V28z"/>
	<path class="st0" d="M15,29h-2v-1h2V29z"/>
	<path class="st0" d="M17,30h-2v-1h2V30z"/>
	<path class="st0" d="M19,30v1h-2v-1H19z"/>
	<path class="st0" d="M20,29v1h-1v-1H20z"/>
	<path class="st0" d="M21,28v1h-1v-1H21z"/>
	<path class="st0" d="M22,27v1h-1v-1H22z"/>
	<path class="st0" d="M23,26v1h-1v-1H23z"/>
	<path class="st0" d="M24,25v1h-1v-1H24z"/>
	<path class="st0" d="M25,24v1h-1v-1H25z"/>
	<path class="st0" d="M26,23v1h-1v-1H26z"/>
	<path class="st0" d="M27,22v1h-1v-1H27z"/>
	<path class="st0" d="M28,21v1h-1v-1H28z"/>
	<path class="st0" d="M29,20v1h-1v-1H29z"/>
	<path class="st0" d="M30,19h-1v1h1V19z"/>
	<path class="st0" d="M30,19v-1h1v1H30z"/>
	<path class="st1" d="M16,2h-1v1h-1v1h-1v1h-1v1h-1v1h-1v1H9v1H8v1H7v1H6v1H5v1H4v1H3v1H2v1h1v-1h1v-1h1v-1h1v-1h1v-1h1v-1h1V9h1V8
		h1V7h1V6h1V5h1V4h1V3h1V2z"/>
	<path class="st1" d="M32,10h-1v1h-1v1h-1v1h-1v1h-1v1h-1v1h-1v1h-1v1h-1v1h-1v1h-1v1h-1v1h-1v1h-1v1h-2v-1h-2v-1h-2v-1h-2v-1H8v-1
		H6v-1H4v-1H2v1h2v1h2v1h2v1h2v1h2v1h2v1h2v1h2v-1h1v-1h1v-1h1v-1h1v-1h1v-1h1v-1h1v-1h1v-1h1v-1h1v-1h1v-1h1v-1h1v-1h1V10z"/>
	<path class="st1" d="M17,29h1v1h-1V29z"/>
	<path class="st1" d="M15,28v1h2v-1H15z"/>
	<path class="st1" d="M13,27v1h2v-1H13z"/>
	<path class="st1" d="M11,26v1h2v-1H11z"/>
	<path class="st1" d="M9,25v1h2v-1H9z"/>
	<path class="st1" d="M7,24v1h2v-1H7z"/>
	<path class="st1" d="M5,23v1h2v-1H5z"/>
	<path class="st1" d="M5,23H3v-1h2V23z"/>
	<path class="st2" d="M29,13h1v5h-1v1h-1v1h-1v1h-1v1h-1v1h-1v1h-1v1h-1v1h-1v1h-1v1h-1v1h-1v-5h1v-1h1v-1h1v-1h1v-1h1v-1h1v-1h1v-1
		h1v-1h1v-1h1v-1h1V13z"/>
	<path class="st2" d="M2,18v4h1v-3h1v-1H2z"/>
	<path class="st2" d="M5,19h1v1H5V19z"/>
	<path class="st2" d="M8,20H7v1h1V20z"/>
	<path class="st2" d="M9,21h1v1H9V21z"/>
	<path class="st2" d="M12,22h-1v1h1V22z"/>
	<path class="st2" d="M13,23h1v1h-1V23z"/>
	<path class="st2" d="M16,24h-1v1h1V24z"/>
	<path class="st3" d="M18,1h-1v1h1v1h2v1h2v1h2v1h2v1h2v1h2v1h1v1h-1v1h-1v1h-1v1h-1v1h-1v1h-1v1h-1v1h-1v1h-1v1h-1v1h-1v1h-1v1h-1
		v1h-2v-1h-2v-1h-2v-1h-2v-1H8v-1H6v-1H4v-1H1v6h1v-5h2v1h2v1h2v1h2v1h2v1h2v1h2v1h2v-1h1v-1h1v-1h1v-1h1v-1h1v-1h1v-1h1v-1h1v-1h1
		v-1h1v-1h1v-1h1v6h-1v1h-1v1h-1v1h-1v1h-1v1h-1v1h-1v1h-1v1h-1v1h-1v1h-1v1h-1v1h1v1h-2v-1h-2v-1h-2v-1h-2v-1H9v-1H7v-1H5v-1H3v-1
		H1v1h2v1h2v1h2v1h2v1h2v1h2v1h2v1h2v1h2v-1h1v-1h1v-1h1v-1h1v-1h1v-1h1v-1h1v-1h1v-1h1v-1h1v-1h1v-1h1v-1h1v-2h-1v-7h1V8h-2V7h-2V6
		h-2V5h-2V4h-2V3h-2V2h-2V1z M30,19v1h-1v-1H30z M30,19h1v-1h-1V19z M28,21v-1h1v1H28z M27,22v-1h1v1H27z M26,23v-1h1v1H26z M25,24
		v-1h1v1H25z M24,25v-1h1v1H24z M23,26v-1h1v1H23z M22,27v-1h1v1H22z M21,28v-1h1v1H21z M20,29v-1h1v1H20z M20,29v1h-1v-1H20z"/>
	<path class="st4" d="M5,19H3v3h2v1h2v1h2v1h2v1h2v1h2v1h2v1h1v-4h-3v-1h-2v-1h-2v-1H9v-1H7v-1H5V19z"/>
	<path class="st5" d="M17,7h3v1h2v1h1v3h-1v1h-2v1h-3v1h-3v-1h1v-1h2v-1h3V9h-3v1h-1v1h-2V9h1V8h2V7z"/>
	<path class="st5" d="M14,17h1v1h-1v1h-1v-1h-1v-1h1v-1h1V17z"/>
	<path class="st6" d="M16,7h1v1h-1V7z"/>
	<path class="st6" d="M14,10h-1v1h1V10z"/>
	<path class="st6" d="M16,11h-1v1h1v1h1v-1h-1V11z"/>
	<path class="st6" d="M21,7h-1v1h1V7z"/>
	<path class="st6" d="M19,11h1v1h-1V11z"/>
	<path class="st6" d="M21,13h-1v1h1V13z"/>
	<path class="st6" d="M15,13h-1v1h-1v1h1v-1h1V13z"/>
	<path class="st6" d="M13,16h-1v1h1V16z"/>
	<path class="st6" d="M12,18h1v1h-1V18z"/>
	<path class="st6" d="M15,18h-1v1h1V18z"/>
	<path class="st6" d="M14,16h1v1h-1V16z"/>
	<path class="st6" d="M17,15h-2v1h2V15z"/>
	<path class="st6" d="M17,15h2v-1h-2V15z"/>
	<path class="st6" d="M20,9h-3v1h3V9z"/>
</g>
</svg>
