
        <svg width="572" height="319" viewBox="0 0 572 319" fill="none" xmlns="http://www.w3.org/2000/svg">
            <rect x="5.43701" y="124.495" width="2.1749" height="10.8745" fill="#000EA3" />
            <rect x="5.43799" y="84.9823" width="2.1749" height="10.8745" fill="#000EA3" />
            <rect x="5.43799" y="104.739" width="2.1749" height="10.8745" fill="#000EA3" />
            <rect x="5.43799" y="65.2258" width="2.1749" height="10.8745" fill="#000EA3" />
            <rect x="5.43799" y="45.4693" width="2.1749" height="10.8745" fill="#000EA3" />
            <rect x="5.43799" y="25.7128" width="2.1749" height="10.8745" fill="#000EA3" />
            <rect x="5.43799" y="5.95625" width="2.1749" height="10.8745" fill="#000EA3" />
            <rect x="5.43701" y="144.252" width="2.1749" height="10.8745" fill="#000EA3" />
            <rect x="5.43701" y="164.008" width="2.1749" height="10.8745" fill="#000EA3" />
            <rect x="5.43701" y="183.765" width="2.1749" height="10.8745" fill="#000EA3" />
            <rect x="5.43701" y="203.521" width="2.1749" height="10.8745" fill="#000EA3" />
            <rect x="5.43701" y="223.278" width="2.1749" height="10.8745" fill="#000EA3" />
            <rect x="5.43701" y="243.034" width="2.1749" height="10.8745" fill="#000EA3" />
            <rect x="5.43701" y="262.791" width="2.1749" height="10.8745" fill="#000EA3" />
            <rect x="5.43701" y="282.547" width="2.1749" height="10.8745" fill="#000EA3" />
            <rect x="5.43701" y="302.304" width="2.1749" height="10.8745" fill="#000EA3" />
            <rect x="427.369" y="311.23" width="2.1749" height="10.8745" transform="rotate(90 427.369 311.23)" fill="#000EA3" />
            <rect x="446.942" y="311.23" width="2.1749" height="10.8745" transform="rotate(90 446.942 311.23)" fill="#000EA3" />
            <rect x="466.517" y="311.23" width="2.1749" height="10.8745" transform="rotate(90 466.517 311.23)" fill="#000EA3" />
            <rect x="486.091" y="311.23" width="2.1749" height="10.8745" transform="rotate(90 486.091 311.23)" fill="#000EA3" />
            <rect x="505.666" y="311.23" width="2.1749" height="10.8745" transform="rotate(90 505.666 311.23)" fill="#000EA3" />
            <rect x="525.24" y="311.23" width="2.1749" height="10.8745" transform="rotate(90 525.24 311.23)" fill="#000EA3" />
            <rect x="544.813" y="311.23" width="2.1749" height="10.8745" transform="rotate(90 544.813 311.23)" fill="#000EA3" />
            <rect x="564.388" y="311.23" width="2.1749" height="10.8745" transform="rotate(90 564.388 311.23)" fill="#000EA3" />
            <rect x="407.794" y="311.23" width="2.1749" height="10.8745" transform="rotate(90 407.794 311.23)" fill="#000EA3" />
            <rect x="388.22" y="311.23" width="2.1749" height="10.8745" transform="rotate(90 388.22 311.23)" fill="#000EA3" />
            <rect x="368.646" y="311.23" width="2.1749" height="10.8745" transform="rotate(90 368.646 311.23)" fill="#000EA3" />
            <rect x="349.072" y="311.23" width="2.1749" height="10.8745" transform="rotate(90 349.072 311.23)" fill="#000EA3" />
            <rect x="329.499" y="311.23" width="2.1749" height="10.8745" transform="rotate(90 329.499 311.23)" fill="#000EA3" />
            <rect x="309.924" y="311.23" width="2.1749" height="10.8745" transform="rotate(90 309.924 311.23)" fill="#000EA3" />
            <rect x="290.35" y="311.23" width="2.1749" height="10.8745" transform="rotate(90 290.35 311.23)" fill="#000EA3" />
            <rect x="270.776" y="311.23" width="2.1749" height="10.8745" transform="rotate(90 270.776 311.23)" fill="#000EA3" />
            <rect x="251.202" y="311.23" width="2.1749" height="10.8745" transform="rotate(90 251.202 311.23)" fill="#000EA3" />
            <rect x="231.627" y="311.23" width="2.1749" height="10.8745" transform="rotate(90 231.627 311.23)" fill="#000EA3" />
            <rect x="212.053" y="311.23" width="2.1749" height="10.8745" transform="rotate(90 212.053 311.23)" fill="#000EA3" />
            <rect x="192.479" y="311.23" width="2.1749" height="10.8745" transform="rotate(90 192.479 311.23)" fill="#000EA3" />
            <rect x="172.905" y="311.23" width="2.1749" height="10.8745" transform="rotate(90 172.905 311.23)" fill="#000EA3" />
            <rect x="153.331" y="311.23" width="2.1749" height="10.8745" transform="rotate(90 153.331 311.23)" fill="#000EA3" />
            <rect x="133.757" y="311.23" width="2.1749" height="10.8745" transform="rotate(90 133.757 311.23)" fill="#000EA3" />
            <rect x="114.183" y="311.23" width="2.1749" height="10.8745" transform="rotate(90 114.183 311.23)" fill="#000EA3" />
            <rect x="94.6084" y="311.23" width="2.1749" height="10.8745" transform="rotate(90 94.6084 311.23)" fill="#000EA3" />
            <rect x="75.0342" y="311.23" width="2.1749" height="10.8745" transform="rotate(90 75.0342 311.23)" fill="#000EA3" />
            <rect x="55.4604" y="311.23" width="2.1749" height="10.8745" transform="rotate(90 55.4604 311.23)" fill="#000EA3" />
            <rect x="35.8862" y="311.23" width="2.1749" height="10.8745" transform="rotate(90 35.8862 311.23)" fill="#000EA3" />
            <rect x="16.312" y="311.23" width="2.1749" height="10.8745" transform="rotate(90 16.312 311.23)" fill="#000EA3" />
            <rect x="427.369" y="5.50034" width="2.1749" height="10.8745" transform="rotate(90 427.369 5.50034)" fill="#000EA3" />
            <rect x="446.942" y="5.50034" width="2.1749" height="10.8745" transform="rotate(90 446.942 5.50034)" fill="#000EA3" />
            <rect x="466.517" y="5.50034" width="2.1749" height="10.8745" transform="rotate(90 466.517 5.50034)" fill="#000EA3" />
            <rect x="486.091" y="5.50034" width="2.1749" height="10.8745" transform="rotate(90 486.091 5.50034)" fill="#000EA3" />
            <rect x="505.666" y="5.50034" width="2.1749" height="10.8745" transform="rotate(90 505.666 5.50034)" fill="#000EA3" />
            <rect x="525.24" y="5.50034" width="2.1749" height="10.8745" transform="rotate(90 525.24 5.50034)" fill="#000EA3" />
            <rect x="544.813" y="5.50034" width="2.1749" height="10.8745" transform="rotate(90 544.813 5.50034)" fill="#000EA3" />
            <rect x="564.388" y="5.50034" width="2.1749" height="10.8745" transform="rotate(90 564.388 5.50034)" fill="#000EA3" />
            <rect x="407.794" y="5.50034" width="2.1749" height="10.8745" transform="rotate(90 407.794 5.50034)" fill="#000EA3" />
            <rect x="388.221" y="5.50034" width="2.1749" height="10.8745" transform="rotate(90 388.221 5.50034)" fill="#000EA3" />
            <rect x="368.646" y="5.50034" width="2.1749" height="10.8745" transform="rotate(90 368.646 5.50034)" fill="#000EA3" />
            <rect x="349.072" y="5.50034" width="2.1749" height="10.8745" transform="rotate(90 349.072 5.50034)" fill="#000EA3" />
            <rect x="329.499" y="5.50034" width="2.1749" height="10.8745" transform="rotate(90 329.499 5.50034)" fill="#000EA3" />
            <rect x="309.924" y="5.50034" width="2.1749" height="10.8745" transform="rotate(90 309.924 5.50034)" fill="#000EA3" />
            <rect x="290.35" y="5.50034" width="2.1749" height="10.8745" transform="rotate(90 290.35 5.50034)" fill="#000EA3" />
            <rect x="270.776" y="5.50034" width="2.1749" height="10.8745" transform="rotate(90 270.776 5.50034)" fill="#000EA3" />
            <rect x="251.202" y="5.50034" width="2.1749" height="10.8745" transform="rotate(90 251.202 5.50034)" fill="#000EA3" />
            <rect x="231.627" y="5.50032" width="2.1749" height="10.8745" transform="rotate(90 231.627 5.50032)" fill="#000EA3" />
            <rect x="212.053" y="5.50032" width="2.1749" height="10.8745" transform="rotate(90 212.053 5.50032)" fill="#000EA3" />
            <rect x="192.479" y="5.50032" width="2.1749" height="10.8745" transform="rotate(90 192.479 5.50032)" fill="#000EA3" />
            <rect x="172.905" y="5.50032" width="2.1749" height="10.8745" transform="rotate(90 172.905 5.50032)" fill="#000EA3" />
            <rect x="153.331" y="5.50032" width="2.1749" height="10.8745" transform="rotate(90 153.331 5.50032)" fill="#000EA3" />
            <rect x="133.757" y="5.50032" width="2.1749" height="10.8745" transform="rotate(90 133.757 5.50032)" fill="#000EA3" />
            <rect x="114.183" y="5.50032" width="2.1749" height="10.8745" transform="rotate(90 114.183 5.50032)" fill="#000EA3" />
            <rect x="94.6084" y="5.50032" width="2.1749" height="10.8745" transform="rotate(90 94.6084 5.50032)" fill="#000EA3" />
            <rect x="75.0342" y="5.50032" width="2.1749" height="10.8745" transform="rotate(90 75.0342 5.50032)" fill="#000EA3" />
            <rect x="55.4604" y="5.50032" width="2.1749" height="10.8745" transform="rotate(90 55.4604 5.50032)" fill="#000EA3" />
            <rect x="35.8862" y="5.50032" width="2.1749" height="10.8745" transform="rotate(90 35.8862 5.50032)" fill="#000EA3" />
            <rect x="16.312" y="5.50032" width="2.1749" height="10.8745" transform="rotate(90 16.312 5.50032)" fill="#000EA3" />
            <rect x="558.95" y="0.0630798" width="13.0494" height="13.0494" fill="#000EA3" />
            <rect x="279.475" y="0.0630798" width="13.0494" height="13.0494" fill="#000EA3" />
            <rect x="279.475" y="305.792" width="13.0494" height="13.0494" fill="#000EA3" />
            <rect y="0.0630798" width="13.0494" height="13.0494" fill="#000EA3" />
            <rect y="152.833" width="13.0494" height="13.0494" fill="#000EA3" />
            <rect x="558.95" y="305.603" width="13.0494" height="13.0494" fill="#000EA3" />
            <rect x="558.95" y="152.833" width="13.0494" height="13.0494" fill="#000EA3" />
            <rect y="305.603" width="13.0494" height="13.0494" fill="#000EA3" />
            <rect x="564.894" y="122.155" width="2.1749" height="10.8745" fill="#000EA3" />
            <rect x="564.895" y="82.6419" width="2.1749" height="10.8745" fill="#000EA3" />
            <rect x="564.895" y="102.398" width="2.1749" height="10.8745" fill="#000EA3" />
            <rect x="564.895" y="62.8854" width="2.1749" height="10.8745" fill="#000EA3" />
            <rect x="564.895" y="43.1289" width="2.1749" height="10.8745" fill="#000EA3" />
            <rect x="564.895" y="23.3724" width="2.1749" height="10.8745" fill="#000EA3" />
            <rect x="564.895" y="3.61588" width="2.1749" height="10.8745" fill="#000EA3" />
            <rect x="564.894" y="141.911" width="2.1749" height="10.8745" fill="#000EA3" />
            <rect x="564.894" y="161.668" width="2.1749" height="10.8745" fill="#000EA3" />
            <rect x="564.894" y="181.424" width="2.1749" height="10.8745" fill="#000EA3" />
            <rect x="564.894" y="201.181" width="2.1749" height="10.8745" fill="#000EA3" />
            <rect x="564.894" y="220.937" width="2.1749" height="10.8745" fill="#000EA3" />
            <rect x="564.894" y="240.694" width="2.1749" height="10.8745" fill="#000EA3" />
            <rect x="564.894" y="260.45" width="2.1749" height="10.8745" fill="#000EA3" />
            <rect x="564.894" y="280.207" width="2.1749" height="10.8745" fill="#000EA3" />
            <rect x="564.894" y="299.963" width="2.1749" height="10.8745" fill="#000EA3" />
        </svg>
