<svg width="1571" height="48" viewBox="0 0 1571 48" fill="none" xmlns="http://www.w3.org/2000/svg">
<rect x="1547" y="44" width="2" height="2" fill="white"/>
<rect x="1549" y="42" width="2" height="2" fill="white"/>
<rect x="1551" y="40" width="2" height="2" fill="white"/>
<rect x="1553" y="38" width="2" height="2" fill="white"/>
<rect x="1555" y="36" width="2" height="2" fill="white"/>
<rect x="1557" y="34" width="2" height="2" fill="white"/>
<rect x="1559" y="32" width="2" height="2" fill="white"/>
<rect x="1561" y="30" width="2" height="2" fill="white"/>
<rect x="1563" y="28" width="2" height="2" fill="white"/>
<rect x="1565" y="26" width="2" height="2" fill="white"/>
<rect x="1567" y="24" width="2" height="2" fill="white"/>
<rect x="1569" y="22" width="2" height="2" fill="white"/>
<rect x="1549" y="44" width="4" height="2" fill="#7B7D7B"/>
<rect x="1551" y="42" width="4" height="2" fill="#7B7D7B"/>
<rect x="1553" y="40" width="4" height="2" fill="#7B7D7B"/>
<rect x="1555" y="38" width="4" height="2" fill="#7B7D7B"/>
<rect x="1557" y="36" width="4" height="2" fill="#7B7D7B"/>
<rect x="1559" y="34" width="4" height="2" fill="#7B7D7B"/>
<rect x="1561" y="32" width="4" height="2" fill="#7B7D7B"/>
<rect x="1563" y="30" width="4" height="2" fill="#7B7D7B"/>
<rect x="1563" y="44" width="2" height="2" fill="white"/>
<rect x="1565" y="42" width="2" height="2" fill="white"/>
<rect x="1567" y="40" width="2" height="2" fill="white"/>
<rect x="1569" y="38" width="2" height="2" fill="white"/>
<rect x="1565" y="44" width="4" height="2" fill="#7B7D7B"/>
<rect x="1567" y="42" width="4" height="2" fill="#7B7D7B"/>
<rect x="1569" y="40" width="2" height="2" fill="#7B7D7B"/>
<rect x="1555" y="44" width="2" height="2" fill="white"/>
<rect x="1557" y="42" width="2" height="2" fill="white"/>
<rect x="1559" y="40" width="2" height="2" fill="white"/>
<rect x="1561" y="38" width="2" height="2" fill="white"/>
<rect x="1563" y="36" width="2" height="2" fill="white"/>
<rect x="1565" y="34" width="2" height="2" fill="white"/>
<rect x="1567" y="32" width="2" height="2" fill="white"/>
<rect x="1569" y="30" width="2" height="2" fill="white"/>
<rect x="1557" y="44" width="4" height="2" fill="#7B7D7B"/>
<rect x="1559" y="42" width="4" height="2" fill="#7B7D7B"/>
<rect x="1561" y="40" width="4" height="2" fill="#7B7D7B"/>
<rect x="1563" y="38" width="4" height="2" fill="#7B7D7B"/>
<rect x="1565" y="36" width="4" height="2" fill="#7B7D7B"/>
<rect x="1567" y="34" width="4" height="2" fill="#7B7D7B"/>
<rect x="1569" y="32" width="2" height="2" fill="#7B7D7B"/>
<rect x="1565" y="28" width="4" height="2" fill="#7B7D7B"/>
<rect x="1567" y="26" width="4" height="2" fill="#7B7D7B"/>
<rect x="1569" y="24" width="2" height="2" fill="#7B7D7B"/>
<g filter="url(#filter0_ii_0_1)">
<rect x="0.858887" y="8" width="643.014" height="40" fill="#C4C4C4"/>
</g>
<g filter="url(#filter1_ii_0_1)">
<rect x="648.198" y="8" width="433.962" height="40" fill="#C4C4C4"/>
</g>
<g filter="url(#filter2_ii_0_1)">
<rect x="1086.48" y="8" width="433.962" height="40" fill="#C4C4C4"/>
</g>
<rect x="2.30078" width="1567.17" height="2" fill="#8E8E8E"/>
<rect x="2.30078" y="2" width="1567.17" height="2" fill="white"/>
<defs>
<filter id="filter0_ii_0_1" x="0.858887" y="8" width="643.014" height="40" filterUnits="userSpaceOnUse" color-interpolation-filters="sRGB">
<feFlood flood-opacity="0" result="BackgroundImageFix"/>
<feBlend mode="normal" in="SourceGraphic" in2="BackgroundImageFix" result="shape"/>
<feColorMatrix in="SourceAlpha" type="matrix" values="0 0 0 0 0 0 0 0 0 0 0 0 0 0 0 0 0 0 127 0" result="hardAlpha"/>
<feOffset dx="2" dy="2"/>
<feComposite in2="hardAlpha" operator="arithmetic" k2="-1" k3="1"/>
<feColorMatrix type="matrix" values="0 0 0 0 0.495833 0 0 0 0 0.495833 0 0 0 0 0.495833 0 0 0 1 0"/>
<feBlend mode="normal" in2="shape" result="effect1_innerShadow_0_1"/>
<feColorMatrix in="SourceAlpha" type="matrix" values="0 0 0 0 0 0 0 0 0 0 0 0 0 0 0 0 0 0 127 0" result="hardAlpha"/>
<feOffset dx="-2" dy="-2"/>
<feComposite in2="hardAlpha" operator="arithmetic" k2="-1" k3="1"/>
<feColorMatrix type="matrix" values="0 0 0 0 0.941667 0 0 0 0 0.941667 0 0 0 0 0.941667 0 0 0 1 0"/>
<feBlend mode="normal" in2="effect1_innerShadow_0_1" result="effect2_innerShadow_0_1"/>
</filter>
<filter id="filter1_ii_0_1" x="648.198" y="8" width="433.962" height="40" filterUnits="userSpaceOnUse" color-interpolation-filters="sRGB">
<feFlood flood-opacity="0" result="BackgroundImageFix"/>
<feBlend mode="normal" in="SourceGraphic" in2="BackgroundImageFix" result="shape"/>
<feColorMatrix in="SourceAlpha" type="matrix" values="0 0 0 0 0 0 0 0 0 0 0 0 0 0 0 0 0 0 127 0" result="hardAlpha"/>
<feOffset dx="2" dy="2"/>
<feComposite in2="hardAlpha" operator="arithmetic" k2="-1" k3="1"/>
<feColorMatrix type="matrix" values="0 0 0 0 0.495833 0 0 0 0 0.495833 0 0 0 0 0.495833 0 0 0 1 0"/>
<feBlend mode="normal" in2="shape" result="effect1_innerShadow_0_1"/>
<feColorMatrix in="SourceAlpha" type="matrix" values="0 0 0 0 0 0 0 0 0 0 0 0 0 0 0 0 0 0 127 0" result="hardAlpha"/>
<feOffset dx="-2" dy="-2"/>
<feComposite in2="hardAlpha" operator="arithmetic" k2="-1" k3="1"/>
<feColorMatrix type="matrix" values="0 0 0 0 0.941667 0 0 0 0 0.941667 0 0 0 0 0.941667 0 0 0 1 0"/>
<feBlend mode="normal" in2="effect1_innerShadow_0_1" result="effect2_innerShadow_0_1"/>
</filter>
<filter id="filter2_ii_0_1" x="1086.48" y="8" width="433.962" height="40" filterUnits="userSpaceOnUse" color-interpolation-filters="sRGB">
<feFlood flood-opacity="0" result="BackgroundImageFix"/>
<feBlend mode="normal" in="SourceGraphic" in2="BackgroundImageFix" result="shape"/>
<feColorMatrix in="SourceAlpha" type="matrix" values="0 0 0 0 0 0 0 0 0 0 0 0 0 0 0 0 0 0 127 0" result="hardAlpha"/>
<feOffset dx="2" dy="2"/>
<feComposite in2="hardAlpha" operator="arithmetic" k2="-1" k3="1"/>
<feColorMatrix type="matrix" values="0 0 0 0 0.495833 0 0 0 0 0.495833 0 0 0 0 0.495833 0 0 0 1 0"/>
<feBlend mode="normal" in2="shape" result="effect1_innerShadow_0_1"/>
<feColorMatrix in="SourceAlpha" type="matrix" values="0 0 0 0 0 0 0 0 0 0 0 0 0 0 0 0 0 0 127 0" result="hardAlpha"/>
<feOffset dx="-2" dy="-2"/>
<feComposite in2="hardAlpha" operator="arithmetic" k2="-1" k3="1"/>
<feColorMatrix type="matrix" values="0 0 0 0 0.941667 0 0 0 0 0.941667 0 0 0 0 0.941667 0 0 0 1 0"/>
<feBlend mode="normal" in2="effect1_innerShadow_0_1" result="effect2_innerShadow_0_1"/>
</filter>
</defs>
</svg>
