<svg width="52" height="14" viewBox="0 0 52 14" fill="none" xmlns="http://www.w3.org/2000/svg">
<path d="M5.166 9.894V7.654H4.06V9.894H5.166ZM1.806 3.174V0.933999H0.7V11H1.806V5.414H2.926V3.174H1.806ZM6.286 7.654V5.414H5.166V7.654H6.286ZM7.406 0.933999V3.174H6.286V5.414H7.406V11H8.526V0.933999H7.406ZM4.046 7.654V5.414H2.926V7.654H4.046ZM11.0482 11V4.28H9.94219V11H11.0482ZM11.0482 2.054V0.933999H9.94219V2.054H11.0482ZM13.5638 4.294H12.4578V11H13.5638V6.534H14.6838V5.414H13.5638V4.294ZM18.0438 11.014V5.414H16.9238V11.014H18.0438ZM16.9238 5.414V4.294H14.6838V5.414H16.9238ZM21.6838 5.414V4.294H20.5638V2.054H19.4578V9.894H20.5638V5.414H21.6838ZM21.6838 11.014V9.894H20.5638V11.014H21.6838ZM27.263 5.414H30.623V4.294H26.157V13.24H27.263V11H30.623V9.894H27.263V5.414ZM31.743 9.894V5.414H30.623V9.894H31.743ZM33.157 4.28V11H34.263V5.414H35.383V4.28H33.157ZM37.8998 11V4.28H36.7938V11H37.8998ZM37.8998 2.054V0.933999H36.7938V2.054H37.8998ZM44.8954 9.894V8.774H43.7754V9.894H44.8954ZM40.4154 9.894V5.414H39.3094V9.894H40.4154ZM43.7754 11.014V9.894H40.4154V11.014H43.7754ZM43.7754 5.414V4.294H40.4154V5.414H43.7754ZM44.8954 6.534V5.414H43.7754V6.534H44.8954ZM50.7754 11.014V9.894H47.4154V11.014H50.7754ZM51.8954 9.894V8.774H50.7754V9.894H51.8954ZM50.7754 5.414V4.294H47.4154V5.414H50.7754ZM51.8954 7.654V5.414H50.7754V6.534H47.4154V5.414H46.3094V9.894H47.4154V7.654H51.8954Z" fill="#008282"/>
</svg>
