<svg width="44" height="26" viewBox="0 0 44 26" fill="none" xmlns="http://www.w3.org/2000/svg">
<path d="M15.9687 8.98555V6.74555H14.8627V8.98555H15.9687ZM12.6087 2.26555V0.0255522H11.5027V10.0916H12.6087V4.50555H13.7287V2.26555H12.6087ZM17.0887 6.74555V4.50555H15.9687V6.74555H17.0887ZM18.2087 0.0255522V2.26555H17.0887V4.50555H18.2087V10.0916H19.3287V0.0255522H18.2087ZM14.8487 6.74555V4.50555H13.7287V6.74555H14.8487ZM21.8509 10.0916V3.37155H20.7449V10.0916H21.8509ZM21.8509 1.14555V0.0255522H20.7449V1.14555H21.8509ZM24.3665 3.38555H23.2605V10.0916H24.3665V5.62555H25.4865V4.50555H24.3665V3.38555ZM28.8465 10.1056V4.50555H27.7265V10.1056H28.8465ZM27.7265 4.50555V3.38555H25.4865V4.50555H27.7265ZM32.4865 4.50555V3.38555H31.3665V1.14555H30.2605V8.98555H31.3665V4.50555H32.4865ZM32.4865 10.1056V8.98555H31.3665V10.1056H32.4865ZM1.91049 21.9856V17.5056H0.804492V21.9856H1.91049ZM1.91049 16.3856V17.5056H5.27049V21.9856H1.91049V23.0916H5.27049V25.3316H6.39049V16.3856H1.91049ZM11.1645 23.1056V21.9856H8.91049V23.1056H11.1645ZM8.91049 21.9856V16.3856H7.80449V21.9856H8.91049ZM12.2705 16.3856V20.8656H11.1505V21.9856H12.2705V23.0916H13.3905V16.3856H12.2705ZM19.2705 17.5056V16.3716H15.9105V17.5056H19.2705ZM15.9105 21.9856V19.7316H14.8045V21.9856H15.9105ZM19.2705 17.5056V18.6256H15.9105V19.7316H19.2705V21.9856H15.9105V23.0916H20.3905V17.5056H19.2705ZM22.9105 16.3856H21.8045V23.0916H22.9105V18.6256H24.0305V17.5056H22.9105V16.3856ZM27.3905 23.1056V17.5056H26.2705V23.1056H27.3905ZM26.2705 17.5056V16.3856H24.0305V17.5056H26.2705ZM31.0305 17.5056V16.3856H29.9105V14.1456H28.8045V21.9856H29.9105V17.5056H31.0305ZM31.0305 23.1056V21.9856H29.9105V23.1056H31.0305ZM33.5472 23.0916V16.3716H32.4412V23.0916H33.5472ZM33.5472 14.1456V13.0256H32.4412V14.1456H33.5472ZM37.1828 17.5056V16.3856H36.0628V14.1456H34.9568V21.9856H36.0628V17.5056H37.1828ZM37.1828 23.1056V21.9856H36.0628V23.1056H37.1828ZM43.1856 20.8656V16.3716H42.0656V20.8656H43.1856ZM39.8256 24.2116H40.9456V21.9856H42.0656V20.8656H39.8256V24.2116ZM39.8256 25.3316V24.2116H37.5996V25.3316H39.8256ZM39.8256 20.8656V16.3716H38.7056V20.8656H39.8256Z" fill="#000EA3"/>
</svg>
