<svg width="56" height="24" viewBox="0 0 56 24" fill="none" xmlns="http://www.w3.org/2000/svg">
<path d="M1.806 1.46733H6.286V0.347329H0.7V10.4133H1.806V5.94733H6.286V4.82733H1.806V1.46733ZM7.406 4.82733V1.46733H6.286V4.82733H7.406ZM8.82109 3.69333V10.4133H9.92709V4.82733H11.0471V3.69333H8.82109ZM13.5638 10.4133V3.69333H12.4578V10.4133H13.5638ZM13.5638 1.46733V0.347329H12.4578V1.46733H13.5638ZM20.5594 9.30733V8.18733H19.4394V9.30733H20.5594ZM16.0794 9.30733V4.82733H14.9734V9.30733H16.0794ZM19.4394 10.4273V9.30733H16.0794V10.4273H19.4394ZM19.4394 4.82733V3.70733H16.0794V4.82733H19.4394ZM20.5594 5.94733V4.82733H19.4394V5.94733H20.5594ZM26.4394 10.4273V9.30733H23.0794V10.4273H26.4394ZM27.5594 9.30733V8.18733H26.4394V9.30733H27.5594ZM26.4394 4.82733V3.70733H23.0794V4.82733H26.4394ZM27.5594 7.06733V4.82733H26.4394V5.94733H23.0794V4.82733H21.9734V9.30733H23.0794V7.06733H27.5594ZM36.5019 4.82733V3.69333H33.1419V4.82733H36.5019ZM33.1419 9.30733V7.05333H32.0359V9.30733H33.1419ZM36.5019 4.82733V5.94733H33.1419V7.05333H36.5019V9.30733H33.1419V10.4133H37.6219V4.82733H36.5019ZM39.0359 1.46733V10.4133H40.1419V4.82733H41.2619V3.69333H40.1419V1.46733H39.0359ZM41.2619 1.46733V0.347329H40.1419V1.46733H41.2619ZM44.8987 4.82733V3.70733H43.7787V1.46733H42.6727V9.30733H43.7787V4.82733H44.8987ZM44.8987 10.4273V9.30733H43.7787V10.4273H44.8987ZM50.7754 10.4273V9.30733H47.4154V10.4273H50.7754ZM51.8954 9.30733V8.18733H50.7754V9.30733H51.8954ZM50.7754 4.82733V3.70733H47.4154V4.82733H50.7754ZM51.8954 7.06733V4.82733H50.7754V5.94733H47.4154V4.82733H46.3094V9.30733H47.4154V7.06733H51.8954ZM53.3094 3.69333V10.4133H54.4154V4.82733H55.5354V3.69333H53.3094ZM0.7 14.4673V23.4133H1.806V17.8273H2.926V16.6933H1.806V14.4673H0.7ZM2.926 14.4673V13.3473H1.806V14.4673H2.926ZM5.44272 23.4133V13.3473H4.33672V23.4133H5.44272ZM11.3183 23.4273V22.3073H7.95834V23.4273H11.3183ZM7.95834 22.3073V17.8273H6.85234V22.3073H7.95834ZM11.3183 17.8273V16.7073H7.95834V17.8273H11.3183ZM12.4383 22.3073V17.8273H11.3183V22.3073H12.4383ZM18.3183 23.4273V22.3073H14.9583V23.4273H18.3183ZM14.9583 22.3073V17.8273H13.8523V22.3073H14.9583ZM18.3183 17.8273V16.7073H14.9583V17.8273H18.3183ZM19.4383 22.3073V17.8273H18.3183V22.3073H19.4383ZM20.8523 16.6933V23.4133H21.9583V17.8273H23.0783V16.6933H20.8523ZM28.6576 17.8273H32.0176V16.6933H28.6576V13.3473H27.5516V23.4133H32.0176V22.3073H28.6576V17.8273ZM33.1376 22.3073V17.8273H32.0176V22.3073H33.1376ZM37.9116 23.4273V22.3073H35.6576V23.4273H37.9116ZM35.6576 22.3073V16.7073H34.5516V22.3073H35.6576ZM39.0176 16.7073V21.1873H37.8976V22.3073H39.0176V23.4133H40.1376V16.7073H39.0176ZM41.5516 16.6933V23.4133H42.6576V17.8273H43.7776V16.6933H41.5516ZM46.2943 16.7073H45.1883V23.4133H46.2943V18.9473H47.4143V17.8273H46.2943V16.7073ZM50.7743 23.4273V17.8273H49.6543V23.4273H50.7743ZM49.6543 17.8273V16.7073H47.4143V17.8273H49.6543Z" fill="#008282"/>
</svg>
