<svg width="56" height="24" viewBox="0 0 56 24" fill="none" xmlns="http://www.w3.org/2000/svg">
<path d="M1.806 1.75371H6.286V0.633706H0.7V10.6997H1.806V6.23371H6.286V5.11371H1.806V1.75371ZM7.406 5.11371V1.75371H6.286V5.11371H7.406ZM8.82109 3.97971V10.6997H9.92709V5.11371H11.0471V3.97971H8.82109ZM13.5638 10.6997V3.97971H12.4578V10.6997H13.5638ZM13.5638 1.75371V0.633706H12.4578V1.75371H13.5638ZM20.5594 9.59371V8.47371H19.4394V9.59371H20.5594ZM16.0794 9.59371V5.11371H14.9734V9.59371H16.0794ZM19.4394 10.7137V9.59371H16.0794V10.7137H19.4394ZM19.4394 5.11371V3.99371H16.0794V5.11371H19.4394ZM20.5594 6.23371V5.11371H19.4394V6.23371H20.5594ZM26.4394 10.7137V9.59371H23.0794V10.7137H26.4394ZM27.5594 9.59371V8.47371H26.4394V9.59371H27.5594ZM26.4394 5.11371V3.99371H23.0794V5.11371H26.4394ZM27.5594 7.35371V5.11371H26.4394V6.23371H23.0794V5.11371H21.9734V9.59371H23.0794V7.35371H27.5594ZM36.5019 5.11371V3.97971H33.1419V5.11371H36.5019ZM33.1419 9.59371V7.33971H32.0359V9.59371H33.1419ZM36.5019 5.11371V6.23371H33.1419V7.33971H36.5019V9.59371H33.1419V10.6997H37.6219V5.11371H36.5019ZM39.0359 1.75371V10.6997H40.1419V5.11371H41.2619V3.97971H40.1419V1.75371H39.0359ZM41.2619 1.75371V0.633706H40.1419V1.75371H41.2619ZM44.8987 5.11371V3.99371H43.7787V1.75371H42.6727V9.59371H43.7787V5.11371H44.8987ZM44.8987 10.7137V9.59371H43.7787V10.7137H44.8987ZM50.7754 10.7137V9.59371H47.4154V10.7137H50.7754ZM51.8954 9.59371V8.47371H50.7754V9.59371H51.8954ZM50.7754 5.11371V3.99371H47.4154V5.11371H50.7754ZM51.8954 7.35371V5.11371H50.7754V6.23371H47.4154V5.11371H46.3094V9.59371H47.4154V7.35371H51.8954ZM53.3094 3.97971V10.6997H54.4154V5.11371H55.5354V3.97971H53.3094ZM5.166 23.7137V22.5937H1.806V23.7137H5.166ZM6.286 22.5937V21.4737H5.166V22.5937H6.286ZM5.166 18.1137V16.9937H1.806V18.1137H5.166ZM6.286 20.3537V18.1137H5.166V19.2337H1.806V18.1137H0.7V22.5937H1.806V20.3537H6.286ZM11.046 23.6997V21.4737H9.926V23.6997H11.046ZM9.926 21.4737V19.2337H8.806V21.4737H9.926ZM8.806 19.2337V16.9797H7.7V19.2337H8.806ZM12.166 21.4737V19.2337H11.046V21.4737H12.166ZM13.286 19.2337V16.9797H12.166V19.2337H13.286ZM19.166 23.7137V22.5937H15.806V23.7137H19.166ZM15.806 22.5937V18.1137H14.7V22.5937H15.806ZM19.166 18.1137V16.9937H15.806V18.1137H19.166ZM20.286 22.5937V18.1137H19.166V22.5937H20.286ZM22.806 23.6997V13.6337H21.7V23.6997H22.806ZM27.5616 23.6997V21.4737H26.4416V23.6997H27.5616ZM26.4416 21.4737V19.2337H25.3216V21.4737H26.4416ZM25.3216 19.2337V16.9797H24.2156V19.2337H25.3216ZM28.6816 21.4737V19.2337H27.5616V21.4737H28.6816ZM29.8016 19.2337V16.9797H28.6816V19.2337H29.8016ZM35.6816 23.7137V22.5937H32.3216V23.7137H35.6816ZM36.8016 22.5937V21.4737H35.6816V22.5937H36.8016ZM35.6816 18.1137V16.9937H32.3216V18.1137H35.6816ZM36.8016 20.3537V18.1137H35.6816V19.2337H32.3216V18.1137H31.2156V22.5937H32.3216V20.3537H36.8016Z" fill="#008282"/>
</svg>
