<svg width="45" height="37" viewBox="0 0 45 37" fill="none" xmlns="http://www.w3.org/2000/svg">
<path d="M7.44995 11.2565V10.1365H6.32995V11.2565H7.44995ZM1.84995 9.03047V1.19047H0.743945V9.03047H1.84995ZM7.44995 9.03047V1.19047H6.32995V7.91047H5.20995V9.03047H1.84995V10.1365H6.32995V9.03047H7.44995ZM5.20995 7.91047V6.79047H4.10395V7.91047H5.20995ZM6.32995 1.19047V0.070474H1.84995V1.19047H6.32995ZM12.225 10.1505V9.03047H9.97104V10.1505H12.225ZM9.97104 9.03047V3.43047H8.86504V9.03047H9.97104ZM13.331 3.43047V7.91047H12.211V9.03047H13.331V10.1365H14.451V3.43047H13.331ZM20.331 4.55047V3.41647H16.971V4.55047H20.331ZM16.971 9.03047V6.77647H15.865V9.03047H16.971ZM20.331 4.55047V5.67047H16.971V6.77647H20.331V9.03047H16.971V10.1365H21.451V4.55047H20.331ZM23.971 3.43047H22.865V10.1365H23.971V5.67047H25.091V4.55047H23.971V3.43047ZM28.451 10.1505V4.55047H27.331V10.1505H28.451ZM27.331 4.55047V3.43047H25.091V4.55047H27.331ZM32.091 4.55047V3.43047H30.971V1.19047H29.865V9.03047H30.971V4.55047H32.091ZM32.091 10.1505V9.03047H30.971V10.1505H32.091ZM34.6078 10.1365V3.41647H33.5018V10.1365H34.6078ZM34.6078 1.19047V0.070474H33.5018V1.19047H34.6078ZM38.2434 4.55047V3.43047H37.1234V1.19047H36.0174V9.03047H37.1234V4.55047H38.2434ZM38.2434 10.1505V9.03047H37.1234V10.1505H38.2434ZM44.2461 7.91047V3.41647H43.1261V7.91047H44.2461ZM40.8861 11.2565H42.0061V9.03047H43.1261V7.91047H40.8861V11.2565ZM40.8861 12.3765V11.2565H38.6601V12.3765H40.8861ZM40.8861 7.91047V3.41647H39.7661V7.91047H40.8861ZM15.2109 17.5505V16.4165H11.8509V17.5505H15.2109ZM11.8509 22.0305V19.7765H10.7449V22.0305H11.8509ZM15.2109 17.5505V18.6705H11.8509V19.7765H15.2109V22.0305H11.8509V23.1365H16.3309V17.5505H15.2109ZM17.7449 14.1905V23.1365H18.8509V17.5505H19.9709V16.4165H18.8509V14.1905H17.7449ZM19.9709 14.1905V13.0705H18.8509V14.1905H19.9709ZM23.6076 17.5505V16.4305H22.4876V14.1905H21.3816V22.0305H22.4876V17.5505H23.6076ZM23.6076 23.1505V22.0305H22.4876V23.1505H23.6076ZM29.4844 23.1505V22.0305H26.1244V23.1505H29.4844ZM30.6044 22.0305V20.9105H29.4844V22.0305H30.6044ZM29.4844 17.5505V16.4305H26.1244V17.5505H29.4844ZM30.6044 19.7905V17.5505H29.4844V18.6705H26.1244V17.5505H25.0184V22.0305H26.1244V19.7905H30.6044ZM32.0184 16.4165V23.1365H33.1244V17.5505H34.2444V16.4165H32.0184ZM8.90819 36.1505V35.0305H5.54819V36.1505H8.90819ZM10.0282 35.0305V33.9105H8.90819V35.0305H10.0282ZM8.90819 30.5505V29.4305H5.54819V30.5505H8.90819ZM10.0282 32.7905V30.5505H8.90819V31.6705H5.54819V30.5505H4.44219V35.0305H5.54819V32.7905H10.0282ZM14.7882 36.1365V33.9105H13.6682V36.1365H14.7882ZM13.6682 33.9105V31.6705H12.5482V33.9105H13.6682ZM12.5482 31.6705V29.4165H11.4422V31.6705H12.5482ZM15.9082 33.9105V31.6705H14.7882V33.9105H15.9082ZM17.0282 31.6705V29.4165H15.9082V31.6705H17.0282ZM22.9082 36.1505V35.0305H19.5482V36.1505H22.9082ZM19.5482 35.0305V30.5505H18.4422V35.0305H19.5482ZM22.9082 30.5505V29.4305H19.5482V30.5505H22.9082ZM24.0282 35.0305V30.5505H22.9082V35.0305H24.0282ZM26.5482 36.1365V26.0705H25.4422V36.1365H26.5482ZM31.3038 36.1365V33.9105H30.1838V36.1365H31.3038ZM30.1838 33.9105V31.6705H29.0638V33.9105H30.1838ZM29.0638 31.6705V29.4165H27.9578V31.6705H29.0638ZM32.4238 33.9105V31.6705H31.3038V33.9105H32.4238ZM33.5438 31.6705V29.4165H32.4238V31.6705H33.5438ZM39.4238 36.1505V35.0305H36.0638V36.1505H39.4238ZM40.5438 35.0305V33.9105H39.4238V35.0305H40.5438ZM39.4238 30.5505V29.4305H36.0638V30.5505H39.4238ZM40.5438 32.7905V30.5505H39.4238V31.6705H36.0638V30.5505H34.9578V35.0305H36.0638V32.7905H40.5438Z" fill="#000EA3"/>
</svg>
