<svg width="52" height="37" viewBox="0 0 52 37" fill="none" xmlns="http://www.w3.org/2000/svg">
<path d="M10.9499 11.734V10.614H9.82995V11.734H10.9499ZM5.34995 9.50801V1.66801H4.24395V9.50801H5.34995ZM10.9499 9.50801V1.66801H9.82995V8.38801H8.70995V9.50801H5.34995V10.614H9.82995V9.50801H10.9499ZM8.70995 8.38801V7.26801H7.60395V8.38801H8.70995ZM9.82995 1.66801V0.548013H5.34995V1.66801H9.82995ZM15.725 10.628V9.50801H13.471V10.628H15.725ZM13.471 9.50801V3.90801H12.365V9.50801H13.471ZM16.831 3.90801V8.38801H15.711V9.50801H16.831V10.614H17.951V3.90801H16.831ZM23.831 5.02801V3.89401H20.471V5.02801H23.831ZM20.471 9.50801V7.25401H19.365V9.50801H20.471ZM23.831 5.02801V6.14801H20.471V7.25401H23.831V9.50801H20.471V10.614H24.951V5.02801H23.831ZM27.471 3.90801H26.365V10.614H27.471V6.14801H28.591V5.02801H27.471V3.90801ZM31.951 10.628V5.02801H30.831V10.628H31.951ZM30.831 5.02801V3.90801H28.591V5.02801H30.831ZM35.591 5.02801V3.90801H34.471V1.66801H33.365V9.50801H34.471V5.02801H35.591ZM35.591 10.628V9.50801H34.471V10.628H35.591ZM38.1078 10.614V3.89401H37.0018V10.614H38.1078ZM38.1078 1.66801V0.548013H37.0018V1.66801H38.1078ZM41.7434 5.02801V3.90801H40.6234V1.66801H39.5174V9.50801H40.6234V5.02801H41.7434ZM41.7434 10.628V9.50801H40.6234V10.628H41.7434ZM47.7461 8.38801V3.89401H46.6261V8.38801H47.7461ZM44.3861 11.734H45.5061V9.50801H46.6261V8.38801H44.3861V11.734ZM44.3861 12.854V11.734H42.1601V12.854H44.3861ZM44.3861 8.38801V3.89401H43.2661V8.38801H44.3861ZM18.7109 18.028V16.894H15.3509V18.028H18.7109ZM15.3509 22.508V20.254H14.2449V22.508H15.3509ZM18.7109 18.028V19.148H15.3509V20.254H18.7109V22.508H15.3509V23.614H19.8309V18.028H18.7109ZM21.2449 14.668V23.614H22.3509V18.028H23.4709V16.894H22.3509V14.668H21.2449ZM23.4709 14.668V13.548H22.3509V14.668H23.4709ZM27.1076 18.028V16.908H25.9876V14.668H24.8816V22.508H25.9876V18.028H27.1076ZM27.1076 23.628V22.508H25.9876V23.628H27.1076ZM32.9844 23.628V22.508H29.6244V23.628H32.9844ZM34.1044 22.508V21.388H32.9844V22.508H34.1044ZM32.9844 18.028V16.908H29.6244V18.028H32.9844ZM34.1044 20.268V18.028H32.9844V19.148H29.6244V18.028H28.5184V22.508H29.6244V20.268H34.1044ZM35.5184 16.894V23.614H36.6244V18.028H37.7444V16.894H35.5184ZM0.955859 27.668V36.614H2.06186V31.028H3.18186V29.894H2.06186V27.668H0.955859ZM3.18186 27.668V26.548H2.06186V27.668H3.18186ZM5.69858 36.614V26.548H4.59258V36.614H5.69858ZM11.5742 36.628V35.508H8.2142V36.628H11.5742ZM8.2142 35.508V31.028H7.1082V35.508H8.2142ZM11.5742 31.028V29.908H8.2142V31.028H11.5742ZM12.6942 35.508V31.028H11.5742V35.508H12.6942ZM18.5742 36.628V35.508H15.2142V36.628H18.5742ZM15.2142 35.508V31.028H14.1082V35.508H15.2142ZM18.5742 31.028V29.908H15.2142V31.028H18.5742ZM19.6942 35.508V31.028H18.5742V35.508H19.6942ZM21.1082 29.894V36.614H22.2142V31.028H23.3342V29.894H21.1082ZM28.9134 31.028H32.2734V29.894H28.9134V26.548H27.8074V36.614H32.2734V35.508H28.9134V31.028ZM33.3934 35.508V31.028H32.2734V35.508H33.3934ZM38.1674 36.628V35.508H35.9134V36.628H38.1674ZM35.9134 35.508V29.908H34.8074V35.508H35.9134ZM39.2734 29.908V34.388H38.1534V35.508H39.2734V36.614H40.3934V29.908H39.2734ZM41.8074 29.894V36.614H42.9134V31.028H44.0334V29.894H41.8074ZM46.5501 29.908H45.4441V36.614H46.5501V32.148H47.6701V31.028H46.5501V29.908ZM51.0301 36.628V31.028H49.9101V36.628H51.0301ZM49.9101 31.028V29.908H47.6701V31.028H49.9101Z" fill="#000EA3"/>
</svg>
