<svg width="571" height="41" viewBox="0 0 571 41" fill="none" xmlns="http://www.w3.org/2000/svg">
<path d="M4.63477 32H9.84375L12.3457 15.8809L12.5713 14.3633L12.7969 15.8809L15.4014 32H20.6104L24.7529 2.14062H19.4619L17.4316 18.875L17.2881 20.126L17.1035 18.8955L14.6016 2.14062H10.4795L8.12109 18.7725L7.93652 20.0029L7.79297 18.834L5.80371 2.14062H0.533203L4.63477 32ZM38.8828 32.4102C41.0293 32.4102 42.8887 31.9932 44.4609 31.1592C46.0332 30.3252 47.1816 29.3955 47.9062 28.3701L45.0557 25.2939C44.3994 26.1416 43.5449 26.7773 42.4922 27.2012C41.4395 27.625 40.3525 27.8369 39.2314 27.8369C38.4385 27.8369 37.707 27.7139 37.0371 27.4678C36.3672 27.2217 35.7725 26.873 35.2529 26.4219C34.7471 25.9844 34.3438 25.499 34.043 24.9658C33.7422 24.4189 33.4961 23.7012 33.3047 22.8125V22.751H48.3574V20.3311C48.3574 18.7041 48.1318 17.2207 47.6807 15.8809C47.2295 14.5273 46.5732 13.3721 45.7119 12.415C44.8369 11.458 43.7705 10.7197 42.5127 10.2002C41.2686 9.66699 39.8467 9.40039 38.2471 9.40039C36.7021 9.40039 35.2734 9.68066 33.9609 10.2412C32.6484 10.8018 31.5137 11.5879 30.5566 12.5996C29.5996 13.6113 28.8545 14.8213 28.3213 16.2295C27.7881 17.624 27.5215 19.1689 27.5215 20.8643V21.6846C27.5215 23.1748 27.7881 24.5762 28.3213 25.8887C28.8682 27.1875 29.6406 28.3154 30.6387 29.2725C31.6367 30.2432 32.833 31.0088 34.2275 31.5693C35.6221 32.1299 37.1738 32.4102 38.8828 32.4102ZM38.2061 14.0146C38.9307 14.0146 39.5664 14.1309 40.1133 14.3633C40.6738 14.582 41.1455 14.8828 41.5283 15.2656C41.9111 15.6621 42.2119 16.127 42.4307 16.6602C42.6494 17.1934 42.7588 17.7607 42.7588 18.3623V18.8135H33.4072C33.5439 18.0889 33.749 17.4326 34.0225 16.8447C34.2959 16.2568 34.6377 15.751 35.0479 15.3271C35.4443 14.9033 35.9092 14.582 36.4424 14.3633C36.9756 14.1309 37.5635 14.0146 38.2061 14.0146ZM66.3633 3.55566V0.0078125H61.79V3.55566C61.79 4.88184 61.6191 6.05762 61.2773 7.08301C60.9492 8.1084 60.5254 9.06543 60.0059 9.9541L62.6104 11.5742C63.1436 11.0957 63.6357 10.542 64.0869 9.91309C64.5381 9.27051 64.9346 8.59375 65.2764 7.88281C65.6182 7.18555 65.8848 6.46777 66.0762 5.72949C66.2676 4.97754 66.3633 4.25293 66.3633 3.55566ZM94.5 9.40039C93.0098 9.40039 91.6357 9.7627 90.3779 10.4873C89.1201 11.1982 88.04 12.1826 87.1377 13.4404L87.0967 12.9482L86.8711 9.81055H81.5596V32H87.2607V18.6699C87.5205 18.041 87.8486 17.4941 88.2451 17.0293C88.6416 16.5645 89.1201 16.1816 89.6807 15.8809C90.1455 15.6211 90.6719 15.4297 91.2598 15.3066C91.8613 15.1699 92.5312 15.1016 93.2695 15.1016C93.9805 15.1016 94.7256 15.1494 95.5049 15.2451C96.2979 15.3271 97.0703 15.457 97.8223 15.6348L98.6631 9.9541C98.2119 9.81738 97.6172 9.69434 96.8789 9.58496C96.1543 9.46191 95.3613 9.40039 94.5 9.40039ZM114.557 32.4102C116.703 32.4102 118.562 31.9932 120.135 31.1592C121.707 30.3252 122.855 29.3955 123.58 28.3701L120.729 25.2939C120.073 26.1416 119.219 26.7773 118.166 27.2012C117.113 27.625 116.026 27.8369 114.905 27.8369C114.112 27.8369 113.381 27.7139 112.711 27.4678C112.041 27.2217 111.446 26.873 110.927 26.4219C110.421 25.9844 110.018 25.499 109.717 24.9658C109.416 24.4189 109.17 23.7012 108.979 22.8125V22.751H124.031V20.3311C124.031 18.7041 123.806 17.2207 123.354 15.8809C122.903 14.5273 122.247 13.3721 121.386 12.415C120.511 11.458 119.444 10.7197 118.187 10.2002C116.942 9.66699 115.521 9.40039 113.921 9.40039C112.376 9.40039 110.947 9.68066 109.635 10.2412C108.322 10.8018 107.188 11.5879 106.23 12.5996C105.273 13.6113 104.528 14.8213 103.995 16.2295C103.462 17.624 103.195 19.1689 103.195 20.8643V21.6846C103.195 23.1748 103.462 24.5762 103.995 25.8887C104.542 27.1875 105.314 28.3154 106.312 29.2725C107.311 30.2432 108.507 31.0088 109.901 31.5693C111.296 32.1299 112.848 32.4102 114.557 32.4102ZM113.88 14.0146C114.604 14.0146 115.24 14.1309 115.787 14.3633C116.348 14.582 116.819 14.8828 117.202 15.2656C117.585 15.6621 117.886 16.127 118.104 16.6602C118.323 17.1934 118.433 17.7607 118.433 18.3623V18.8135H109.081C109.218 18.0889 109.423 17.4326 109.696 16.8447C109.97 16.2568 110.312 15.751 110.722 15.3271C111.118 14.9033 111.583 14.582 112.116 14.3633C112.649 14.1309 113.237 14.0146 113.88 14.0146ZM153.645 20.7412V21.1719C153.645 22.7852 153.843 24.2822 154.239 25.6631C154.636 27.0303 155.21 28.2129 155.962 29.2109C156.7 30.209 157.603 30.9951 158.669 31.5693C159.749 32.1299 160.966 32.4102 162.319 32.4102C163.563 32.4102 164.657 32.1709 165.601 31.6924C166.544 31.2139 167.364 30.5439 168.062 29.6826L168.349 32H173.496V0.5H167.774V11.7998C167.091 11.0342 166.305 10.4463 165.416 10.0361C164.541 9.6123 163.522 9.40039 162.36 9.40039C160.979 9.40039 159.749 9.67383 158.669 10.2207C157.603 10.7676 156.693 11.54 155.941 12.5381C155.189 13.5361 154.615 14.7324 154.219 16.127C153.836 17.5215 153.645 19.0596 153.645 20.7412ZM159.346 21.1719V20.7412C159.346 19.8115 159.428 18.9434 159.592 18.1367C159.756 17.3164 160.016 16.5986 160.371 15.9834C160.727 15.3818 161.185 14.9102 161.745 14.5684C162.319 14.2129 163.01 14.0352 163.816 14.0352C164.787 14.0352 165.594 14.2471 166.236 14.6709C166.879 15.0811 167.392 15.6621 167.774 16.4141V25.3965C167.392 26.1348 166.872 26.7158 166.216 27.1396C165.573 27.5635 164.76 27.7754 163.775 27.7754C162.969 27.7754 162.285 27.6045 161.725 27.2627C161.164 26.9209 160.706 26.4492 160.351 25.8477C159.995 25.2598 159.735 24.5693 159.571 23.7764C159.421 22.9697 159.346 22.1016 159.346 21.1719ZM190.23 32.4102C192.377 32.4102 194.236 31.9932 195.809 31.1592C197.381 30.3252 198.529 29.3955 199.254 28.3701L196.403 25.2939C195.747 26.1416 194.893 26.7773 193.84 27.2012C192.787 27.625 191.7 27.8369 190.579 27.8369C189.786 27.8369 189.055 27.7139 188.385 27.4678C187.715 27.2217 187.12 26.873 186.601 26.4219C186.095 25.9844 185.691 25.499 185.391 24.9658C185.09 24.4189 184.844 23.7012 184.652 22.8125V22.751H199.705V20.3311C199.705 18.7041 199.479 17.2207 199.028 15.8809C198.577 14.5273 197.921 13.3721 197.06 12.415C196.185 11.458 195.118 10.7197 193.86 10.2002C192.616 9.66699 191.194 9.40039 189.595 9.40039C188.05 9.40039 186.621 9.68066 185.309 10.2412C183.996 10.8018 182.861 11.5879 181.904 12.5996C180.947 13.6113 180.202 14.8213 179.669 16.2295C179.136 17.624 178.869 19.1689 178.869 20.8643V21.6846C178.869 23.1748 179.136 24.5762 179.669 25.8887C180.216 27.1875 180.988 28.3154 181.986 29.2725C182.984 30.2432 184.181 31.0088 185.575 31.5693C186.97 32.1299 188.521 32.4102 190.23 32.4102ZM189.554 14.0146C190.278 14.0146 190.914 14.1309 191.461 14.3633C192.021 14.582 192.493 14.8828 192.876 15.2656C193.259 15.6621 193.56 16.127 193.778 16.6602C193.997 17.1934 194.106 17.7607 194.106 18.3623V18.8135H184.755C184.892 18.0889 185.097 17.4326 185.37 16.8447C185.644 16.2568 185.985 15.751 186.396 15.3271C186.792 14.9033 187.257 14.582 187.79 14.3633C188.323 14.1309 188.911 14.0146 189.554 14.0146ZM219.003 25.9092C219.003 26.251 218.914 26.5654 218.736 26.8525C218.572 27.1396 218.319 27.3926 217.978 27.6113C217.622 27.8301 217.164 28.0078 216.604 28.1445C216.057 28.2676 215.414 28.3291 214.676 28.3291C214.061 28.3291 213.459 28.2676 212.871 28.1445C212.297 28.0215 211.784 27.8232 211.333 27.5498C210.882 27.29 210.513 26.9482 210.226 26.5244C209.938 26.0869 209.774 25.5674 209.733 24.9658H204.299C204.299 25.8682 204.518 26.7705 204.955 27.6729C205.406 28.5615 206.062 29.3545 206.924 30.0518C207.785 30.7627 208.852 31.3369 210.123 31.7744C211.408 32.2119 212.885 32.4307 214.553 32.4307C216.07 32.4307 217.444 32.2666 218.675 31.9385C219.905 31.5967 220.958 31.125 221.833 30.5234C222.694 29.9219 223.357 29.2109 223.822 28.3906C224.301 27.5566 224.54 26.6475 224.54 25.6631C224.54 24.5967 224.301 23.6807 223.822 22.915C223.357 22.1357 222.708 21.4727 221.874 20.9258C221.04 20.3926 220.049 19.9551 218.9 19.6133C217.752 19.2715 216.508 18.9912 215.168 18.7725C214.238 18.6357 213.473 18.4785 212.871 18.3008C212.27 18.1094 211.798 17.8975 211.456 17.665C211.101 17.4463 210.854 17.2002 210.718 16.9268C210.581 16.6396 210.513 16.332 210.513 16.0039C210.513 15.6758 210.588 15.3682 210.738 15.0811C210.902 14.7803 211.135 14.5205 211.436 14.3018C211.764 14.0557 212.188 13.8643 212.707 13.7275C213.227 13.5908 213.835 13.5225 214.532 13.5225C215.353 13.5225 216.05 13.625 216.624 13.8301C217.212 14.0352 217.677 14.3086 218.019 14.6504C218.265 14.9102 218.449 15.2041 218.572 15.5322C218.695 15.8467 218.757 16.1885 218.757 16.5576H224.458C224.458 15.5322 224.232 14.582 223.781 13.707C223.33 12.832 222.681 12.0732 221.833 11.4307C220.972 10.8018 219.926 10.3096 218.695 9.9541C217.465 9.58496 216.077 9.40039 214.532 9.40039C213.056 9.40039 211.729 9.58496 210.554 9.9541C209.378 10.3232 208.38 10.8223 207.56 11.4512C206.739 12.0801 206.11 12.8115 205.673 13.6455C205.235 14.4795 205.017 15.3545 205.017 16.2705C205.017 17.2139 205.229 18.0479 205.652 18.7725C206.09 19.4971 206.691 20.1328 207.457 20.6797C208.223 21.2402 209.139 21.7188 210.205 22.1152C211.285 22.498 212.475 22.8193 213.773 23.0791C214.799 23.2705 215.646 23.4619 216.316 23.6533C216.986 23.8447 217.526 24.0498 217.937 24.2686C218.333 24.501 218.606 24.7471 218.757 25.0068C218.921 25.2666 219.003 25.5674 219.003 25.9092ZM231.431 9.81055V14.4658H237.747V27.3652H231.431V32H249.519V27.3652H243.51V9.81055H231.431ZM237.337 4.12988C237.337 4.56738 237.412 4.97754 237.562 5.36035C237.727 5.72949 237.952 6.04395 238.239 6.30371C238.526 6.57715 238.868 6.78906 239.265 6.93945C239.675 7.08984 240.126 7.16504 240.618 7.16504C241.63 7.16504 242.43 6.88477 243.018 6.32422C243.619 5.75 243.92 5.01855 243.92 4.12988C243.92 3.24121 243.619 2.5166 243.018 1.95605C242.43 1.38184 241.63 1.09473 240.618 1.09473C240.126 1.09473 239.675 1.16992 239.265 1.32031C238.868 1.4707 238.526 1.67578 238.239 1.93555C237.952 2.20898 237.727 2.53711 237.562 2.91992C237.412 3.28906 237.337 3.69238 237.337 4.12988ZM254.563 20.7412V21.1719C254.563 22.7852 254.769 24.2822 255.179 25.6631C255.603 27.0303 256.204 28.2129 256.983 29.2109C257.763 30.209 258.699 30.9951 259.793 31.5693C260.9 32.1299 262.145 32.4102 263.525 32.4102C264.223 32.4102 264.872 32.335 265.474 32.1846C266.089 32.0342 266.649 31.8223 267.155 31.5488C267.497 31.3574 267.818 31.1387 268.119 30.8926C268.42 30.6465 268.707 30.373 268.98 30.0723V31.3438C268.98 32.0957 268.871 32.7725 268.652 33.374C268.447 33.9756 268.146 34.4814 267.75 34.8916C267.312 35.3428 266.766 35.6846 266.109 35.917C265.467 36.1494 264.729 36.2656 263.895 36.2656C263.375 36.2656 262.869 36.2109 262.377 36.1016C261.898 36.0059 261.434 35.8555 260.982 35.6504C260.518 35.4453 260.073 35.1787 259.649 34.8506C259.226 34.5361 258.829 34.167 258.46 33.7432L255.896 37.209C256.375 37.8242 256.949 38.3506 257.619 38.7881C258.289 39.2393 259 39.6084 259.752 39.8955C260.504 40.1826 261.263 40.3945 262.028 40.5312C262.794 40.668 263.512 40.7363 264.182 40.7363C265.74 40.7363 267.162 40.5244 268.447 40.1006C269.746 39.6904 270.86 39.082 271.79 38.2754C272.706 37.4688 273.417 36.4775 273.923 35.3018C274.442 34.126 274.702 32.7861 274.702 31.2822V9.81055H269.514L269.288 11.9229C269.015 11.5811 268.714 11.2734 268.386 11C268.058 10.7129 267.702 10.4668 267.319 10.2617C266.813 9.97461 266.246 9.7627 265.617 9.62598C265.002 9.47559 264.318 9.40039 263.566 9.40039C262.172 9.40039 260.921 9.67383 259.813 10.2207C258.706 10.7676 257.763 11.54 256.983 12.5381C256.204 13.5361 255.603 14.7324 255.179 16.127C254.769 17.5215 254.563 19.0596 254.563 20.7412ZM260.285 21.1719V20.7412C260.285 19.8115 260.381 18.9434 260.572 18.1367C260.764 17.3164 261.058 16.5986 261.454 15.9834C261.837 15.3818 262.322 14.9102 262.91 14.5684C263.498 14.2129 264.195 14.0352 265.002 14.0352C265.439 14.0352 265.843 14.0762 266.212 14.1582C266.595 14.2402 266.943 14.3564 267.258 14.5068C267.627 14.6846 267.955 14.917 268.242 15.2041C268.529 15.4912 268.775 15.8262 268.98 16.209V25.6016C268.789 25.9434 268.563 26.251 268.304 26.5244C268.044 26.7979 267.743 27.0303 267.401 27.2217C267.073 27.3994 266.704 27.5361 266.294 27.6318C265.897 27.7275 265.453 27.7754 264.961 27.7754C264.154 27.7754 263.457 27.6045 262.869 27.2627C262.281 26.9209 261.796 26.4492 261.413 25.8477C261.03 25.2598 260.743 24.5693 260.552 23.7764C260.374 22.9697 260.285 22.1016 260.285 21.1719ZM280.362 32H286.084V16.2295C286.275 15.9287 286.487 15.6553 286.72 15.4092C286.952 15.1631 287.212 14.9512 287.499 14.7734C287.854 14.5273 288.258 14.3428 288.709 14.2197C289.174 14.0967 289.68 14.0352 290.227 14.0352C290.883 14.0352 291.471 14.1035 291.99 14.2402C292.51 14.3633 292.954 14.5889 293.323 14.917C293.692 15.2451 293.973 15.6963 294.164 16.2705C294.369 16.8311 294.472 17.5488 294.472 18.4238V32H300.173V18.3418C300.173 16.7285 299.981 15.3613 299.599 14.2402C299.229 13.1055 298.71 12.1758 298.04 11.4512C297.356 10.7402 296.55 10.2207 295.62 9.89258C294.69 9.56445 293.665 9.40039 292.544 9.40039C291.669 9.40039 290.842 9.52344 290.062 9.76953C289.283 10.0156 288.565 10.3711 287.909 10.8359C287.526 11.1094 287.164 11.417 286.822 11.7588C286.48 12.1006 286.166 12.4766 285.879 12.8867L285.53 9.81055H280.362V32ZM316.354 32.4102C318.5 32.4102 320.359 31.9932 321.932 31.1592C323.504 30.3252 324.652 29.3955 325.377 28.3701L322.526 25.2939C321.87 26.1416 321.016 26.7773 319.963 27.2012C318.91 27.625 317.823 27.8369 316.702 27.8369C315.909 27.8369 315.178 27.7139 314.508 27.4678C313.838 27.2217 313.243 26.873 312.724 26.4219C312.218 25.9844 311.814 25.499 311.514 24.9658C311.213 24.4189 310.967 23.7012 310.775 22.8125V22.751H325.828V20.3311C325.828 18.7041 325.603 17.2207 325.151 15.8809C324.7 14.5273 324.044 13.3721 323.183 12.415C322.308 11.458 321.241 10.7197 319.983 10.2002C318.739 9.66699 317.317 9.40039 315.718 9.40039C314.173 9.40039 312.744 9.68066 311.432 10.2412C310.119 10.8018 308.984 11.5879 308.027 12.5996C307.07 13.6113 306.325 14.8213 305.792 16.2295C305.259 17.624 304.992 19.1689 304.992 20.8643V21.6846C304.992 23.1748 305.259 24.5762 305.792 25.8887C306.339 27.1875 307.111 28.3154 308.109 29.2725C309.107 30.2432 310.304 31.0088 311.698 31.5693C313.093 32.1299 314.645 32.4102 316.354 32.4102ZM315.677 14.0146C316.401 14.0146 317.037 14.1309 317.584 14.3633C318.145 14.582 318.616 14.8828 318.999 15.2656C319.382 15.6621 319.683 16.127 319.901 16.6602C320.12 17.1934 320.229 17.7607 320.229 18.3623V18.8135H310.878C311.015 18.0889 311.22 17.4326 311.493 16.8447C311.767 16.2568 312.108 15.751 312.519 15.3271C312.915 14.9033 313.38 14.582 313.913 14.3633C314.446 14.1309 315.034 14.0146 315.677 14.0146ZM330.217 20.7412V21.1719C330.217 22.7852 330.415 24.2822 330.812 25.6631C331.208 27.0303 331.782 28.2129 332.534 29.2109C333.272 30.209 334.175 30.9951 335.241 31.5693C336.321 32.1299 337.538 32.4102 338.892 32.4102C340.136 32.4102 341.229 32.1709 342.173 31.6924C343.116 31.2139 343.937 30.5439 344.634 29.6826L344.921 32H350.068V0.5H344.347V11.7998C343.663 11.0342 342.877 10.4463 341.988 10.0361C341.113 9.6123 340.095 9.40039 338.933 9.40039C337.552 9.40039 336.321 9.67383 335.241 10.2207C334.175 10.7676 333.266 11.54 332.514 12.5381C331.762 13.5361 331.188 14.7324 330.791 16.127C330.408 17.5215 330.217 19.0596 330.217 20.7412ZM335.918 21.1719V20.7412C335.918 19.8115 336 18.9434 336.164 18.1367C336.328 17.3164 336.588 16.5986 336.943 15.9834C337.299 15.3818 337.757 14.9102 338.317 14.5684C338.892 14.2129 339.582 14.0352 340.389 14.0352C341.359 14.0352 342.166 14.2471 342.809 14.6709C343.451 15.0811 343.964 15.6621 344.347 16.4141V25.3965C343.964 26.1348 343.444 26.7158 342.788 27.1396C342.146 27.5635 341.332 27.7754 340.348 27.7754C339.541 27.7754 338.857 27.6045 338.297 27.2627C337.736 26.9209 337.278 26.4492 336.923 25.8477C336.567 25.2598 336.308 24.5693 336.144 23.7764C335.993 22.9697 335.918 22.1016 335.918 21.1719ZM391.72 4.37598H386.019V9.81055H380.953V14.0146H386.019V24.1045C386.019 25.5674 386.21 26.8252 386.593 27.8779C386.976 28.917 387.522 29.7715 388.233 30.4414C388.931 31.125 389.771 31.6309 390.756 31.959C391.754 32.2734 392.861 32.4307 394.078 32.4307C394.707 32.4307 395.343 32.3965 395.985 32.3281C396.642 32.2734 397.271 32.1914 397.872 32.082C398.474 31.9727 399.041 31.8359 399.574 31.6719C400.107 31.4941 400.572 31.2891 400.969 31.0566L400.415 27.1396C400.155 27.208 399.841 27.2764 399.472 27.3447C399.116 27.4131 398.733 27.4746 398.323 27.5293C397.899 27.5977 397.455 27.6523 396.99 27.6934C396.539 27.7344 396.095 27.7549 395.657 27.7549C395.056 27.7549 394.509 27.6865 394.017 27.5498C393.538 27.4131 393.128 27.1807 392.786 26.8525C392.444 26.5381 392.178 26.1143 391.986 25.5811C391.809 25.0342 391.72 24.3574 391.72 23.5508V14.0146H400.005V9.81055H391.72V4.37598ZM405.706 20.7002V21.1309C405.706 22.7578 405.938 24.2617 406.403 25.6426C406.868 27.0098 407.552 28.1992 408.454 29.2109C409.343 30.2227 410.437 31.0156 411.735 31.5898C413.048 32.1504 414.538 32.4307 416.206 32.4307C417.86 32.4307 419.337 32.1504 420.636 31.5898C421.935 31.0156 423.028 30.2227 423.917 29.2109C424.806 28.1992 425.482 27.0098 425.947 25.6426C426.412 24.2617 426.645 22.7578 426.645 21.1309V20.7002C426.645 19.0869 426.412 17.5967 425.947 16.2295C425.482 14.8486 424.806 13.6523 423.917 12.6406C423.015 11.6289 421.914 10.8359 420.615 10.2617C419.316 9.6875 417.833 9.40039 416.165 9.40039C414.497 9.40039 413.014 9.6875 411.715 10.2617C410.43 10.8359 409.343 11.6289 408.454 12.6406C407.552 13.6523 406.868 14.8486 406.403 16.2295C405.938 17.5967 405.706 19.0869 405.706 20.7002ZM411.407 21.1309V20.7002C411.407 19.7979 411.496 18.9434 411.674 18.1367C411.852 17.3301 412.132 16.6191 412.515 16.0039C412.897 15.3887 413.39 14.9033 413.991 14.5479C414.593 14.1924 415.317 14.0146 416.165 14.0146C417.026 14.0146 417.758 14.1924 418.359 14.5479C418.961 14.9033 419.453 15.3887 419.836 16.0039C420.205 16.6191 420.479 17.3301 420.656 18.1367C420.834 18.9434 420.923 19.7979 420.923 20.7002V21.1309C420.923 22.0605 420.834 22.9355 420.656 23.7559C420.479 24.5625 420.205 25.2666 419.836 25.8682C419.453 26.4834 418.961 26.9688 418.359 27.3242C417.758 27.6797 417.04 27.8574 416.206 27.8574C415.345 27.8574 414.606 27.6797 413.991 27.3242C413.39 26.9688 412.897 26.4834 412.515 25.8682C412.132 25.2666 411.852 24.5625 411.674 23.7559C411.496 22.9355 411.407 22.0605 411.407 21.1309ZM476.93 21.1309V20.7002C476.93 19.3604 476.807 18.1025 476.561 16.9268C476.328 15.751 475.966 14.6914 475.474 13.748C475.159 13.1602 474.797 12.6201 474.387 12.1279C473.977 11.6221 473.519 11.1914 473.013 10.8359C472.384 10.3711 471.666 10.0156 470.859 9.76953C470.066 9.52344 469.191 9.40039 468.234 9.40039C467.537 9.40039 466.888 9.47559 466.286 9.62598C465.698 9.7627 465.151 9.97461 464.646 10.2617C464.29 10.4531 463.955 10.6855 463.641 10.959C463.326 11.2188 463.032 11.5059 462.759 11.8203V0.5H457.058V32H462.185L462.451 29.6416C462.684 29.9424 462.93 30.2227 463.189 30.4824C463.449 30.7285 463.729 30.9541 464.03 31.1592C464.591 31.5693 465.22 31.877 465.917 32.082C466.628 32.3008 467.414 32.4102 468.275 32.4102C469.219 32.4102 470.08 32.2871 470.859 32.041C471.652 31.8086 472.363 31.4668 472.992 31.0156C473.689 30.5371 474.291 29.9355 474.797 29.2109C475.316 28.4863 475.733 27.6797 476.048 26.791C476.335 25.9844 476.554 25.1094 476.704 24.166C476.854 23.209 476.93 22.1973 476.93 21.1309ZM471.229 20.7002V21.1309C471.229 21.7051 471.201 22.2588 471.146 22.792C471.105 23.3252 471.03 23.8174 470.921 24.2686C470.784 24.8838 470.579 25.4375 470.306 25.9297C470.046 26.4082 469.704 26.7979 469.28 27.0986C468.979 27.3174 468.624 27.4883 468.214 27.6113C467.804 27.7344 467.346 27.7959 466.84 27.7959C466.252 27.7959 465.726 27.7275 465.261 27.5908C464.81 27.4541 464.413 27.2559 464.071 26.9961C463.784 26.791 463.531 26.5518 463.312 26.2783C463.107 25.9912 462.923 25.6768 462.759 25.335V16.4961C462.882 16.2363 463.019 15.9971 463.169 15.7783C463.319 15.5459 463.483 15.3408 463.661 15.1631C464.03 14.7939 464.475 14.5137 464.994 14.3223C465.514 14.1309 466.115 14.0352 466.799 14.0352C467.305 14.0352 467.756 14.0967 468.152 14.2197C468.549 14.3291 468.904 14.5 469.219 14.7324C469.697 15.1016 470.053 15.5117 470.285 15.9629C470.531 16.4004 470.729 16.8994 470.88 17.46C471.003 17.9385 471.092 18.4512 471.146 18.998C471.201 19.5449 471.229 20.1123 471.229 20.7002ZM496.638 32H501.806V9.81055H496.084V25.376C495.906 25.7314 495.694 26.0527 495.448 26.3398C495.202 26.627 494.922 26.873 494.607 27.0781C494.238 27.3105 493.808 27.4883 493.315 27.6113C492.837 27.7344 492.297 27.7959 491.695 27.7959C491.025 27.7959 490.458 27.7139 489.993 27.5498C489.528 27.3857 489.152 27.1123 488.865 26.7295C488.578 26.3604 488.366 25.8682 488.229 25.2529C488.106 24.6377 488.045 23.8789 488.045 22.9766V9.81055H482.344V22.9355C482.344 24.6172 482.528 26.0596 482.897 27.2627C483.28 28.4521 483.813 29.4297 484.497 30.1953C485.181 30.9746 486.001 31.542 486.958 31.8975C487.915 32.2529 488.968 32.4307 490.116 32.4307C491.374 32.4307 492.529 32.1162 493.582 31.4873C494.648 30.8584 495.558 29.9902 496.31 28.8828L496.638 32ZM523.318 9.40039C521.828 9.40039 520.454 9.7627 519.196 10.4873C517.938 11.1982 516.858 12.1826 515.956 13.4404L515.915 12.9482L515.689 9.81055H510.378V32H516.079V18.6699C516.339 18.041 516.667 17.4941 517.063 17.0293C517.46 16.5645 517.938 16.1816 518.499 15.8809C518.964 15.6211 519.49 15.4297 520.078 15.3066C520.68 15.1699 521.35 15.1016 522.088 15.1016C522.799 15.1016 523.544 15.1494 524.323 15.2451C525.116 15.3271 525.889 15.457 526.641 15.6348L527.481 9.9541C527.03 9.81738 526.436 9.69434 525.697 9.58496C524.973 9.46191 524.18 9.40039 523.318 9.40039ZM532.608 32H538.33V16.2295C538.521 15.9287 538.733 15.6553 538.966 15.4092C539.198 15.1631 539.458 14.9512 539.745 14.7734C540.101 14.5273 540.504 14.3428 540.955 14.2197C541.42 14.0967 541.926 14.0352 542.473 14.0352C543.129 14.0352 543.717 14.1035 544.236 14.2402C544.756 14.3633 545.2 14.5889 545.569 14.917C545.938 15.2451 546.219 15.6963 546.41 16.2705C546.615 16.8311 546.718 17.5488 546.718 18.4238V32H552.419V18.3418C552.419 16.7285 552.228 15.3613 551.845 14.2402C551.476 13.1055 550.956 12.1758 550.286 11.4512C549.603 10.7402 548.796 10.2207 547.866 9.89258C546.937 9.56445 545.911 9.40039 544.79 9.40039C543.915 9.40039 543.088 9.52344 542.309 9.76953C541.529 10.0156 540.812 10.3711 540.155 10.8359C539.772 11.1094 539.41 11.417 539.068 11.7588C538.727 12.1006 538.412 12.4766 538.125 12.8867L537.776 9.81055H532.608V32ZM570.138 21.5615L570.466 2.14062H564.621L564.949 21.5615H570.138ZM564.211 29.2109C564.211 30.0859 564.505 30.8242 565.093 31.4258C565.681 32.0137 566.494 32.3076 567.533 32.3076C568.545 32.3076 569.352 32.0137 569.953 31.4258C570.555 30.8242 570.855 30.0859 570.855 29.2109C570.855 28.3086 570.555 27.5566 569.953 26.9551C569.352 26.3535 568.545 26.0527 567.533 26.0527C566.494 26.0527 565.681 26.3535 565.093 26.9551C564.505 27.5566 564.211 28.3086 564.211 29.2109Z" fill="#008282"/>
</svg>
